<mxfile host="app.diagrams.net" modified="2024-05-20T06:29:34.264Z" agent="Mozilla/5.0 (Windows NT 10.0; Win64; x64) AppleWebKit/537.36 (KHTML, like Gecko) Chrome/124.0.0.0 Safari/537.36" etag="cDueYz_myqLLKBocezRX" version="24.4.0" type="github">
  <diagram name="Page-1" id="4jjKygfNc19oo7J8joDH">
    <mxGraphModel dx="2284" dy="772" grid="1" gridSize="10" guides="1" tooltips="1" connect="1" arrows="1" fold="1" page="1" pageScale="1" pageWidth="850" pageHeight="1100" math="0" shadow="0">
      <root>
        <mxCell id="0" />
        <mxCell id="1" parent="0" />
        <mxCell id="ASE-62kSg69__nPNwbdC-13" value="" style="edgeStyle=orthogonalEdgeStyle;rounded=0;orthogonalLoop=1;jettySize=auto;html=1;" edge="1" parent="1" source="ASE-62kSg69__nPNwbdC-1" target="ASE-62kSg69__nPNwbdC-5">
          <mxGeometry relative="1" as="geometry" />
        </mxCell>
        <mxCell id="ASE-62kSg69__nPNwbdC-1" value="Start" style="rounded=1;whiteSpace=wrap;html=1;" vertex="1" parent="1">
          <mxGeometry x="159" y="70" width="120" height="60" as="geometry" />
        </mxCell>
        <mxCell id="ASE-62kSg69__nPNwbdC-15" value="" style="edgeStyle=orthogonalEdgeStyle;rounded=0;orthogonalLoop=1;jettySize=auto;html=1;" edge="1" parent="1" source="ASE-62kSg69__nPNwbdC-3" target="ASE-62kSg69__nPNwbdC-4">
          <mxGeometry relative="1" as="geometry" />
        </mxCell>
        <mxCell id="ASE-62kSg69__nPNwbdC-3" value="Has user typed &quot;exit&quot;?" style="rhombus;whiteSpace=wrap;html=1;" vertex="1" parent="1">
          <mxGeometry x="139" y="250" width="160" height="80" as="geometry" />
        </mxCell>
        <mxCell id="ASE-62kSg69__nPNwbdC-17" value="" style="edgeStyle=orthogonalEdgeStyle;rounded=0;orthogonalLoop=1;jettySize=auto;html=1;" edge="1" parent="1" source="ASE-62kSg69__nPNwbdC-4" target="ASE-62kSg69__nPNwbdC-7">
          <mxGeometry relative="1" as="geometry" />
        </mxCell>
        <mxCell id="ASE-62kSg69__nPNwbdC-4" value="Split up the input strings into words with &quot; &quot; as separator and save the words to a string array" style="rounded=1;whiteSpace=wrap;html=1;" vertex="1" parent="1">
          <mxGeometry x="109" y="360" width="220" height="60" as="geometry" />
        </mxCell>
        <mxCell id="ASE-62kSg69__nPNwbdC-14" value="" style="edgeStyle=orthogonalEdgeStyle;rounded=0;orthogonalLoop=1;jettySize=auto;html=1;" edge="1" parent="1" source="ASE-62kSg69__nPNwbdC-5" target="ASE-62kSg69__nPNwbdC-3">
          <mxGeometry relative="1" as="geometry" />
        </mxCell>
        <mxCell id="ASE-62kSg69__nPNwbdC-5" value="Scan user input" style="rounded=1;whiteSpace=wrap;html=1;" vertex="1" parent="1">
          <mxGeometry x="159" y="160" width="120" height="60" as="geometry" />
        </mxCell>
        <mxCell id="ASE-62kSg69__nPNwbdC-18" value="" style="edgeStyle=orthogonalEdgeStyle;rounded=0;orthogonalLoop=1;jettySize=auto;html=1;" edge="1" parent="1" source="ASE-62kSg69__nPNwbdC-7" target="ASE-62kSg69__nPNwbdC-9">
          <mxGeometry relative="1" as="geometry" />
        </mxCell>
        <mxCell id="ASE-62kSg69__nPNwbdC-33" value="" style="edgeStyle=orthogonalEdgeStyle;rounded=0;orthogonalLoop=1;jettySize=auto;html=1;" edge="1" parent="1" source="ASE-62kSg69__nPNwbdC-7" target="ASE-62kSg69__nPNwbdC-32">
          <mxGeometry relative="1" as="geometry" />
        </mxCell>
        <mxCell id="ASE-62kSg69__nPNwbdC-7" value="Have we iterated&amp;nbsp;&lt;span style=&quot;background-color: initial;&quot;&gt;every&amp;nbsp;&lt;/span&gt;&lt;div&gt;&lt;span style=&quot;background-color: initial;&quot;&gt;word in the array?&lt;/span&gt;&lt;/div&gt;" style="rhombus;whiteSpace=wrap;html=1;" vertex="1" parent="1">
          <mxGeometry x="125" y="450" width="190" height="80" as="geometry" />
        </mxCell>
        <mxCell id="ASE-62kSg69__nPNwbdC-20" value="" style="edgeStyle=orthogonalEdgeStyle;rounded=0;orthogonalLoop=1;jettySize=auto;html=1;" edge="1" parent="1" source="ASE-62kSg69__nPNwbdC-9" target="ASE-62kSg69__nPNwbdC-10">
          <mxGeometry relative="1" as="geometry" />
        </mxCell>
        <mxCell id="ASE-62kSg69__nPNwbdC-9" value="&lt;div&gt;Go to the next word in array:&lt;/div&gt;1. Change the word to lower case&lt;div&gt;2. Ignore the punctuation marks&lt;/div&gt;" style="rounded=1;whiteSpace=wrap;html=1;" vertex="1" parent="1">
          <mxGeometry x="110" y="560" width="220" height="60" as="geometry" />
        </mxCell>
        <mxCell id="ASE-62kSg69__nPNwbdC-21" value="" style="edgeStyle=orthogonalEdgeStyle;rounded=0;orthogonalLoop=1;jettySize=auto;html=1;" edge="1" parent="1" source="ASE-62kSg69__nPNwbdC-10" target="ASE-62kSg69__nPNwbdC-11">
          <mxGeometry relative="1" as="geometry" />
        </mxCell>
        <mxCell id="ASE-62kSg69__nPNwbdC-25" value="" style="edgeStyle=orthogonalEdgeStyle;rounded=0;orthogonalLoop=1;jettySize=auto;html=1;" edge="1" parent="1" source="ASE-62kSg69__nPNwbdC-10" target="ASE-62kSg69__nPNwbdC-12">
          <mxGeometry relative="1" as="geometry" />
        </mxCell>
        <mxCell id="ASE-62kSg69__nPNwbdC-10" value="The word is already a key&amp;nbsp;&lt;div&gt;in the map?&lt;/div&gt;" style="rhombus;whiteSpace=wrap;html=1;" vertex="1" parent="1">
          <mxGeometry x="125" y="650" width="190" height="80" as="geometry" />
        </mxCell>
        <mxCell id="ASE-62kSg69__nPNwbdC-11" value="Add it to the map with a value of 1" style="rounded=1;whiteSpace=wrap;html=1;" vertex="1" parent="1">
          <mxGeometry x="110" y="760" width="220" height="60" as="geometry" />
        </mxCell>
        <mxCell id="ASE-62kSg69__nPNwbdC-12" value="Increment its associated value" style="rounded=1;whiteSpace=wrap;html=1;" vertex="1" parent="1">
          <mxGeometry x="360" y="660" width="220" height="60" as="geometry" />
        </mxCell>
        <mxCell id="ASE-62kSg69__nPNwbdC-16" value="Yes" style="text;html=1;align=center;verticalAlign=middle;whiteSpace=wrap;rounded=0;" vertex="1" parent="1">
          <mxGeometry x="210" y="330" width="60" height="30" as="geometry" />
        </mxCell>
        <mxCell id="ASE-62kSg69__nPNwbdC-19" value="No" style="text;html=1;align=center;verticalAlign=middle;whiteSpace=wrap;rounded=0;" vertex="1" parent="1">
          <mxGeometry x="220" y="530" width="60" height="30" as="geometry" />
        </mxCell>
        <mxCell id="ASE-62kSg69__nPNwbdC-24" value="No" style="text;html=1;align=center;verticalAlign=middle;whiteSpace=wrap;rounded=0;" vertex="1" parent="1">
          <mxGeometry x="220" y="730" width="60" height="30" as="geometry" />
        </mxCell>
        <mxCell id="ASE-62kSg69__nPNwbdC-26" value="yes" style="text;html=1;align=center;verticalAlign=middle;whiteSpace=wrap;rounded=0;" vertex="1" parent="1">
          <mxGeometry x="300" y="660" width="60" height="30" as="geometry" />
        </mxCell>
        <mxCell id="ASE-62kSg69__nPNwbdC-30" value="No" style="text;html=1;align=center;verticalAlign=middle;whiteSpace=wrap;rounded=0;" vertex="1" parent="1">
          <mxGeometry x="90" y="260" width="60" height="30" as="geometry" />
        </mxCell>
        <mxCell id="ASE-62kSg69__nPNwbdC-37" value="" style="edgeStyle=orthogonalEdgeStyle;rounded=0;orthogonalLoop=1;jettySize=auto;html=1;" edge="1" parent="1" source="ASE-62kSg69__nPNwbdC-32" target="ASE-62kSg69__nPNwbdC-34">
          <mxGeometry relative="1" as="geometry" />
        </mxCell>
        <mxCell id="ASE-62kSg69__nPNwbdC-32" value="Print out the keys (word) and value (count if appearance)" style="rounded=1;whiteSpace=wrap;html=1;" vertex="1" parent="1">
          <mxGeometry x="-140" y="660" width="220" height="60" as="geometry" />
        </mxCell>
        <mxCell id="ASE-62kSg69__nPNwbdC-34" value="End" style="rounded=1;whiteSpace=wrap;html=1;" vertex="1" parent="1">
          <mxGeometry x="-90" y="760" width="120" height="60" as="geometry" />
        </mxCell>
        <mxCell id="ASE-62kSg69__nPNwbdC-35" value="" style="endArrow=classic;html=1;rounded=0;exitX=1;exitY=0.5;exitDx=0;exitDy=0;entryX=1;entryY=0.5;entryDx=0;entryDy=0;" edge="1" parent="1" source="ASE-62kSg69__nPNwbdC-12" target="ASE-62kSg69__nPNwbdC-7">
          <mxGeometry width="50" height="50" relative="1" as="geometry">
            <mxPoint x="150" y="550" as="sourcePoint" />
            <mxPoint x="200" y="500" as="targetPoint" />
            <Array as="points">
              <mxPoint x="610" y="690" />
              <mxPoint x="610" y="490" />
              <mxPoint x="470" y="490" />
            </Array>
          </mxGeometry>
        </mxCell>
        <mxCell id="ASE-62kSg69__nPNwbdC-36" value="" style="endArrow=classic;html=1;rounded=0;exitX=1;exitY=0.5;exitDx=0;exitDy=0;entryX=1;entryY=0.5;entryDx=0;entryDy=0;" edge="1" parent="1" source="ASE-62kSg69__nPNwbdC-11" target="ASE-62kSg69__nPNwbdC-7">
          <mxGeometry width="50" height="50" relative="1" as="geometry">
            <mxPoint x="150" y="550" as="sourcePoint" />
            <mxPoint x="200" y="500" as="targetPoint" />
            <Array as="points">
              <mxPoint x="610" y="790" />
              <mxPoint x="610" y="490" />
            </Array>
          </mxGeometry>
        </mxCell>
        <mxCell id="ASE-62kSg69__nPNwbdC-38" value="Yes" style="text;html=1;align=center;verticalAlign=middle;whiteSpace=wrap;rounded=0;" vertex="1" parent="1">
          <mxGeometry x="50" y="460" width="60" height="30" as="geometry" />
        </mxCell>
        <mxCell id="ASE-62kSg69__nPNwbdC-41" value="&lt;span style=&quot;font-size: 17px;&quot;&gt;Time Complexity: O(n log m) where n is the count of the words and m is the count of unique words, as TreeMap is implemented to sort the results. Insertion and update would be more complex as compared to HashMap&lt;/span&gt;&lt;div&gt;&lt;span style=&quot;font-size: 17px;&quot;&gt;Space Complexity:&amp;nbsp;&lt;/span&gt;&lt;span style=&quot;font-size: 17px; background-color: initial;&quot;&gt;O(n) to process the user&#39;s complete input&lt;/span&gt;&lt;/div&gt;" style="text;html=1;align=left;verticalAlign=middle;whiteSpace=wrap;rounded=0;" vertex="1" parent="1">
          <mxGeometry x="430" y="290" width="460" height="110" as="geometry" />
        </mxCell>
        <mxCell id="ASE-62kSg69__nPNwbdC-42" value="&lt;font style=&quot;font-size: 17px;&quot;&gt;Clarifying Questions&lt;/font&gt;&lt;div style=&quot;&quot;&gt;&lt;span style=&quot;background-color: initial; font-size: 17px;&quot;&gt;Don&#39;t have a specific question for this one&lt;/span&gt;&lt;span style=&quot;background-color: initial; color: rgba(0, 0, 0, 0); font-family: monospace; font-size: 0px; text-wrap: nowrap;&quot;&gt;22Does3CmxGraphModel%3E%3Croot%3E%3CmxCell%20id%3D%220%22%2F%3E%3CmxCell%20id%3D%221%22%20parent%3D%220%22%2F%3E%3CmxCell%20id%3D%222%22%20value%3D%22%26lt%3Bspan%20style%3D%26quot%3Bfont-size%3A%2017px%3B%26quot%3B%26gt%3BTime%20Complexity%3A%20O(n)%20as%20we%20traverse%20through%20the%20list%26lt%3B%2Fspan%26gt%3B%26lt%3Bdiv%26gt%3B%26lt%3Bspan%20style%3D%26quot%3Bfont-size%3A%2017px%3B%26quot%3B%26gt%3BSpace%20Complexity%3A%26amp%3Bnbsp%3B%20O(1)%20as%20I%20just%20need%20three%20pointers%20(prev%2Fcurrent%2Fnext)%26lt%3Bbr%26gt%3B%26lt%3B%2Fspan%26gt%3B%26lt%3B%2Fdiv%26gt%3B%22%20style%3D%22text%3Bhtml%3D1%3Balign%3Dleft%3BverticalAlign%3Dmiddle%3BwhiteSpace%3Dwrap%3Brounded%3D0%3B%22%20vertex%3D%221%22%20parent%3D%221%22%3E%3CmxGeometry%20x%3D%2252%22%20y%3D%22680%22%20width%3D%22460%22%20height%3D%2285%22%20as%3D%22geometry%22%2F%3E%3C%2FmxCell%3E%3C%2Froot%3E%3C%2FmxGraphModel%3E&lt;/span&gt;&lt;br&gt;&lt;/div&gt;" style="text;html=1;align=left;verticalAlign=middle;whiteSpace=wrap;rounded=0;" vertex="1" parent="1">
          <mxGeometry x="430" y="150" width="460" height="85" as="geometry" />
        </mxCell>
        <mxCell id="ASE-62kSg69__nPNwbdC-43" value="" style="endArrow=classic;html=1;rounded=0;exitX=0;exitY=0.5;exitDx=0;exitDy=0;entryX=0;entryY=0.5;entryDx=0;entryDy=0;" edge="1" parent="1" source="ASE-62kSg69__nPNwbdC-3" target="ASE-62kSg69__nPNwbdC-5">
          <mxGeometry width="50" height="50" relative="1" as="geometry">
            <mxPoint x="700" y="450" as="sourcePoint" />
            <mxPoint x="750" y="400" as="targetPoint" />
            <Array as="points">
              <mxPoint x="80" y="290" />
              <mxPoint x="80" y="190" />
            </Array>
          </mxGeometry>
        </mxCell>
      </root>
    </mxGraphModel>
  </diagram>
</mxfile>
